<?xml version="1.0" standalone="no"?><!DOCTYPE svg PUBLIC "-//W3C//DTD SVG 1.1//EN" "http://www.w3.org/Graphics/SVG/1.1/DTD/svg11.dtd"><svg t="1613365734341" class="icon" viewBox="0 0 1024 1024" version="1.1" xmlns="http://www.w3.org/2000/svg" p-id="4619" xmlns:xlink="http://www.w3.org/1999/xlink" width="200" height="200"><defs><style type="text/css"></style></defs><path d="M503.3472 315.904c-73.5744 0-133.4272 59.8528-133.4272 133.4272s59.8528 133.4272 133.4272 133.4272 133.4272-59.8528 133.4272-133.4272c0.0512-73.5744-59.8528-133.4272-133.4272-133.4272z" fill="#bfbfbf" p-id="4620"></path><path d="M503.3472 113.152c-219.9552 0-398.848 178.944-398.848 398.848 0 219.9552 178.944 398.848 398.848 398.848s398.848-178.944 398.848-398.848c0.0512-219.9552-178.8928-398.848-398.848-398.848z m275.2 635.5968a25.4464 25.4464 0 0 1-16.4352 5.9904 25.4976 25.4976 0 0 1-19.6096-9.1648c-59.4944-70.912-146.6368-111.616-239.1552-111.616-92.0576 0-178.944 40.3456-238.3872 110.7456a25.57952 25.57952 0 0 1-36.096 3.0208c-10.8032-9.1136-12.1344-25.2928-3.0208-36.096 45.312-53.6576 104.3968-92.16 169.8304-112.4352-46.592-33.536-76.9536-88.2176-76.9536-149.8624 0-101.8368 82.8416-184.6272 184.6272-184.6272s184.6272 82.8416 184.6272 184.6272c0 61.6448-30.4128 116.2752-76.9536 149.8624a362.7008 362.7008 0 0 1 170.7008 113.5104 25.53344 25.53344 0 0 1-3.1744 36.0448z" fill="#bfbfbf" p-id="4621"></path></svg>